<svg width="15" height="16" viewBox="0 0 15 16" fill="none" xmlns="http://www.w3.org/2000/svg">
<path d="M13.871 14.4C13.071 15.1917 12.0293 15.8333 10.7793 15.8333C9.57096 15.8333 8.82096 15.1167 7.68763 15.1167C6.52929 15.1167 5.62096 15.8333 4.58763 15.8333C3.33763 15.8333 2.22096 15.0333 1.42096 14.0167C-0.212374 11.9167 -0.512374 8.58333 0.912626 6.4C1.85429 4.95 3.41263 4.05 5.10429 4.05C6.22096 4.05 7.08763 4.66667 7.85429 4.66667C8.58763 4.66667 9.60429 4.05 10.7376 4.05C11.8126 4.05 13.0876 4.61667 13.846 5.75833C11.2876 6.99167 11.7043 10.4833 14.3543 11.5C13.8043 12.7833 12.9876 14.0833 12.196 15.2417L13.871 14.4ZM9.68763 3.54167C9.67096 1.68333 11.221 0.0916667 13.0793 0C13.221 1.99167 11.3293 3.68333 9.68763 3.54167Z" fill="black"/>
</svg>
