<svg width="16" height="16" viewBox="0 0 16 16" fill="none" xmlns="http://www.w3.org/2000/svg">
<path d="M7.23919 2.3416C7.47919 1.6048 8.52159 1.6048 8.76079 2.3416L9.61679 4.9752C9.72406 5.30421 10.0307 5.52695 10.3768 5.5272H13.1464C13.9216 5.5272 14.2432 6.5192 13.6168 6.9752L11.3768 8.6024C11.0962 8.80596 10.9786 9.16707 11.0856 9.4968L11.9416 12.1304C12.1816 12.8672 11.3376 13.4808 10.7096 13.0248L8.46959 11.3976C8.18929 11.1941 7.80988 11.1941 7.52959 11.3976L5.28959 13.0248C4.66239 13.4808 3.81919 12.8672 4.05839 12.1304L4.91439 9.4968C5.02135 9.16707 4.90378 8.80596 4.62319 8.6024L2.38399 6.976C1.75759 6.52 2.07999 5.528 2.85439 5.528H5.62319C5.96954 5.52809 6.27662 5.30529 6.38399 4.976L7.23999 2.3424L7.23919 2.3416Z" fill="#FB923C"/>
</svg>
